<svg width="64" height="43" viewBox="0 0 64 43" fill="none" xmlns="http://www.w3.org/2000/svg">
	<path opacity="0.5" d="M42.2297 42.525C38.0713 42.5256 34.0062 41.2931 30.5483 38.9834C27.0904 36.6736 24.3951 33.3904 22.8032 29.5488C21.2113 25.7072 20.7943 21.4799 21.6049 17.4013C22.4156 13.3227 24.4175 9.57613 27.3574 6.63529C30.2974 3.69446 34.0434 1.69146 38.1217 0.879604C42.2 0.0677433 46.4275 0.483479 50.2696 2.07424C54.1116 3.665 57.3957 6.35934 59.7065 9.81654C62.0172 13.2737 63.2509 17.3385 63.2515 21.4969V21.5C63.2458 27.0739 61.0292 32.4178 57.0882 36.3594C53.1472 40.301 47.8035 42.5184 42.2297 42.525Z" fill="#54BAB9"/>
	<path d="M21.7734 42.525C17.6151 42.525 13.5501 41.2919 10.0926 38.9817C6.63501 36.6714 3.94019 33.3877 2.34886 29.5459C0.757523 25.7041 0.341158 21.4767 1.15241 17.3982C1.96367 13.3198 3.9661 9.57348 6.9065 6.63308C9.8469 3.69269 13.5932 1.69025 17.6716 0.878993C21.7501 0.0677392 25.9775 0.484105 29.8193 2.07544C33.6612 3.66677 36.9448 6.3616 39.2551 9.81914C41.5653 13.2767 42.7984 17.3417 42.7984 21.5C42.7926 27.0744 40.5756 32.4188 36.6339 36.3605C32.6922 40.3022 27.3478 42.5192 21.7734 42.525Z" fill="#54A8BA"/>
</svg>
