<svg width="58" height="39" viewBox="0 0 58 39" fill="none" xmlns="http://www.w3.org/2000/svg">
<path d="M18.931 19.7474C18.931 20.3576 18.7207 20.8648 18.3001 21.2689C17.8796 21.673 17.3641 21.875 16.7539 21.875C16.2756 21.875 15.8921 21.7431 15.6035 21.4792C15.3149 21.2153 15.1706 20.8524 15.1706 20.3906C15.1706 19.7804 15.3767 19.265 15.7891 18.8444C16.2014 18.4238 16.7127 18.2135 17.3229 18.2135C17.7847 18.2135 18.1682 18.3496 18.4733 18.6217C18.7784 18.8939 18.931 19.2691 18.931 19.7474ZM38.3516 16.0612C38.3516 16.7539 38.1701 17.224 37.8073 17.4714C37.4444 17.7188 36.9002 17.8424 36.1745 17.8424L35.3828 17.8672L35.8034 15.2201C35.8364 15.0386 35.9436 14.9479 36.125 14.9479H36.5703C36.9332 14.9479 37.2218 14.9644 37.4362 14.9974C37.6506 15.0304 37.8568 15.1335 38.0547 15.3066C38.2526 15.4798 38.3516 15.7313 38.3516 16.0612ZM47.0352 19.7474C47.0352 20.3411 46.8249 20.8442 46.4043 21.2565C45.9837 21.6688 45.4766 21.875 44.8828 21.875C44.4045 21.875 44.0169 21.7431 43.7201 21.4792C43.4232 21.2153 43.2747 20.8524 43.2747 20.3906C43.2747 19.7804 43.4809 19.265 43.8932 18.8444C44.3056 18.4238 44.8168 18.2135 45.4271 18.2135C45.8889 18.2135 46.2724 18.3496 46.5775 18.6217C46.8826 18.8939 47.0352 19.2691 47.0352 19.7474ZM13.1914 15.5169C13.1914 14.5438 12.8739 13.8388 12.2389 13.4017C11.6039 12.9646 10.7752 12.7461 9.7526 12.7461H5.79427C5.4809 12.7461 5.30773 12.9028 5.27474 13.2161L3.66667 23.3099C3.65017 23.4089 3.67491 23.4996 3.74089 23.582C3.80686 23.6645 3.88932 23.7057 3.98828 23.7057H5.86849C6.19835 23.7057 6.37977 23.549 6.41276 23.2357L6.85807 20.5143C6.87457 20.3824 6.93229 20.2752 7.03125 20.1927C7.13021 20.1102 7.25391 20.0566 7.40234 20.0319C7.55078 20.0072 7.69097 19.9948 7.82292 19.9948C7.95486 19.9948 8.11155 20.003 8.29297 20.0195C8.47439 20.036 8.58984 20.0443 8.63932 20.0443C10.0577 20.0443 11.171 19.6443 11.9792 18.8444C12.7873 18.0445 13.1914 16.9353 13.1914 15.5169ZM20.8359 23.2357L21.8503 16.7786C21.8668 16.6797 21.842 16.589 21.776 16.5065C21.7101 16.424 21.6276 16.3828 21.5286 16.3828H19.6484C19.4175 16.3828 19.2773 16.6549 19.2279 17.1992C18.7826 16.5395 17.9991 16.2096 16.8776 16.2096C15.6901 16.2096 14.6799 16.6549 13.847 17.5456C13.0141 18.4362 12.5977 19.4835 12.5977 20.6875C12.5977 21.6606 12.8822 22.4358 13.4512 23.013C14.0202 23.5903 14.783 23.8789 15.7396 23.8789C16.2014 23.8789 16.6797 23.7799 17.1745 23.582C17.6693 23.3841 18.0651 23.1202 18.362 22.7904C18.296 22.9883 18.263 23.1615 18.263 23.3099C18.263 23.5738 18.3702 23.7057 18.5846 23.7057H20.2917C20.605 23.7057 20.7865 23.549 20.8359 23.2357ZM31.8945 16.7292C31.8945 16.6467 31.8615 16.5684 31.7956 16.4941C31.7296 16.4199 31.6554 16.3828 31.5729 16.3828H29.668C29.4865 16.3828 29.3381 16.4653 29.2227 16.6302L26.6003 20.4896L25.5117 16.7786C25.4293 16.5148 25.2478 16.3828 24.9674 16.3828H23.112C23.0295 16.3828 22.9553 16.4199 22.8893 16.4941C22.8234 16.5684 22.7904 16.6467 22.7904 16.7292C22.7904 16.7622 22.9512 17.2487 23.2728 18.1888C23.5944 19.1289 23.9408 20.1432 24.3118 21.2318C24.6829 22.3203 24.8767 22.8976 24.8932 22.9635C23.5408 24.8108 22.8646 25.8003 22.8646 25.9323C22.8646 26.1467 22.9718 26.2539 23.1862 26.2539H25.0911C25.2726 26.2539 25.421 26.1714 25.5365 26.0065L31.8451 16.9023C31.878 16.8694 31.8945 16.8116 31.8945 16.7292ZM41.2956 15.5169C41.2956 14.5438 40.9781 13.8388 40.3431 13.4017C39.7081 12.9646 38.8793 12.7461 37.8568 12.7461H33.9232C33.5933 12.7461 33.4119 12.9028 33.3789 13.2161L31.7708 23.3099C31.7543 23.4089 31.7791 23.4996 31.8451 23.582C31.911 23.6645 31.9935 23.7057 32.0924 23.7057H34.1211C34.319 23.7057 34.451 23.5985 34.5169 23.3841L34.9622 20.5143C34.9787 20.3824 35.0365 20.2752 35.1354 20.1927C35.2344 20.1102 35.3581 20.0566 35.5065 20.0319C35.6549 20.0072 35.7951 19.9948 35.9271 19.9948C36.059 19.9948 36.2157 20.003 36.3971 20.0195C36.5786 20.036 36.694 20.0443 36.7435 20.0443C38.1619 20.0443 39.2752 19.6443 40.0833 18.8444C40.8915 18.0445 41.2956 16.9353 41.2956 15.5169ZM48.9401 23.2357L49.9544 16.7786C49.9709 16.6797 49.9462 16.589 49.8802 16.5065C49.8142 16.424 49.7318 16.3828 49.6328 16.3828H47.7526C47.5217 16.3828 47.3815 16.6549 47.332 17.1992C46.9032 16.5395 46.1198 16.2096 44.9818 16.2096C43.7943 16.2096 42.7841 16.6549 41.9512 17.5456C41.1183 18.4362 40.7018 19.4835 40.7018 20.6875C40.7018 21.6606 40.9863 22.4358 41.5553 23.013C42.1244 23.5903 42.8872 23.8789 43.8438 23.8789C44.322 23.8789 44.8086 23.7799 45.3034 23.582C45.7982 23.3841 46.1858 23.1202 46.4661 22.7904C46.4661 22.8069 46.4497 22.8811 46.4167 23.013C46.3837 23.145 46.3672 23.2439 46.3672 23.3099C46.3672 23.5738 46.4744 23.7057 46.6888 23.7057H48.3958C48.7092 23.7057 48.8906 23.549 48.9401 23.2357ZM54.3333 13.1172V13.0924C54.3333 12.8615 54.2261 12.7461 54.0117 12.7461H52.181C51.9996 12.7461 51.8924 12.8368 51.8594 13.0182L50.2513 23.3099L50.2266 23.3594C50.2266 23.4418 50.2595 23.5202 50.3255 23.5944C50.3915 23.6686 50.474 23.7057 50.5729 23.7057H52.2057C52.5191 23.7057 52.6923 23.549 52.7253 23.2357L54.3333 13.1172ZM10.1979 16.4323C10.1155 17.0095 9.90104 17.3889 9.55469 17.5703C9.20833 17.7517 8.71354 17.8424 8.07031 17.8424L7.25391 17.8672L7.67448 15.2201C7.70747 15.0386 7.81467 14.9479 7.99609 14.9479H8.46615C9.12587 14.9479 9.60417 15.0428 9.90104 15.2324C10.1979 15.4221 10.2969 15.822 10.1979 16.4323ZM57.5 3.66667V35.3333C57.5 36.191 57.1866 36.9332 56.5599 37.5599C55.9332 38.1866 55.191 38.5 54.3333 38.5H3.66667C2.80903 38.5 2.06684 38.1866 1.4401 37.5599C0.813368 36.9332 0.5 36.191 0.5 35.3333V3.66667C0.5 2.80903 0.813368 2.06684 1.4401 1.4401C2.06684 0.813368 2.80903 0.5 3.66667 0.5H54.3333C55.191 0.5 55.9332 0.813368 56.5599 1.4401C57.1866 2.06684 57.5 2.80903 57.5 3.66667Z" fill="#54A8BA"/>
</svg>
